<svg width="431" height="24" viewBox="0 0 431 24" fill="none" xmlns="http://www.w3.org/2000/svg">
<path d="M10.08 6.88V18H8.256V13.136H3.024V18H1.2V6.88H3.024V11.648H8.256V6.88H10.08ZM16.3053 18.144C15.4733 18.144 14.7213 17.9573 14.0493 17.584C13.3773 17.2 12.8493 16.6667 12.4653 15.984C12.0813 15.2907 11.8893 14.4907 11.8893 13.584C11.8893 12.688 12.0866 11.8933 12.4813 11.2C12.8759 10.5067 13.4146 9.97333 14.0973 9.6C14.7799 9.22667 15.5426 9.04 16.3853 9.04C17.2279 9.04 17.9906 9.22667 18.6733 9.6C19.3559 9.97333 19.8946 10.5067 20.2893 11.2C20.6839 11.8933 20.8813 12.688 20.8813 13.584C20.8813 14.48 20.6786 15.2747 20.2733 15.968C19.8679 16.6613 19.3133 17.2 18.6093 17.584C17.9159 17.9573 17.1479 18.144 16.3053 18.144ZM16.3053 16.56C16.7746 16.56 17.2119 16.448 17.6173 16.224C18.0333 16 18.3693 15.664 18.6253 15.216C18.8813 14.768 19.0093 14.224 19.0093 13.584C19.0093 12.944 18.8866 12.4053 18.6413 11.968C18.3959 11.52 18.0706 11.184 17.6653 10.96C17.2599 10.736 16.8226 10.624 16.3533 10.624C15.8839 10.624 15.4466 10.736 15.0413 10.96C14.6466 11.184 14.3319 11.52 14.0973 11.968C13.8626 12.4053 13.7453 12.944 13.7453 13.584C13.7453 14.5333 13.9853 15.2693 14.4653 15.792C14.9559 16.304 15.5693 16.56 16.3053 16.56ZM33.3564 9.04C34.0497 9.04 34.6684 9.184 35.2124 9.472C35.767 9.76 36.199 10.1867 36.5084 10.752C36.8284 11.3173 36.9884 12 36.9884 12.8V18H35.1804V13.072C35.1804 12.2827 34.983 11.68 34.5884 11.264C34.1937 10.8373 33.655 10.624 32.9724 10.624C32.2897 10.624 31.7457 10.8373 31.3404 11.264C30.9457 11.68 30.7484 12.2827 30.7484 13.072V18H28.9404V13.072C28.9404 12.2827 28.743 11.68 28.3484 11.264C27.9537 10.8373 27.415 10.624 26.7324 10.624C26.0497 10.624 25.5057 10.8373 25.1004 11.264C24.7057 11.68 24.5084 12.2827 24.5084 13.072V18H22.6844V9.184H24.5084V10.192C24.807 9.82933 25.1857 9.54667 25.6444 9.344C26.103 9.14133 26.5937 9.04 27.1164 9.04C27.8204 9.04 28.4497 9.18933 29.0044 9.488C29.559 9.78667 29.9857 10.2187 30.2844 10.784C30.551 10.2507 30.967 9.82933 31.5324 9.52C32.0977 9.2 32.7057 9.04 33.3564 9.04ZM47.3894 13.376C47.3894 13.7067 47.368 14.0053 47.3254 14.272H40.5894C40.6427 14.976 40.904 15.5413 41.3734 15.968C41.8427 16.3947 42.4187 16.608 43.1014 16.608C44.0827 16.608 44.776 16.1973 45.1814 15.376H47.1494C46.8827 16.1867 46.3974 16.8533 45.6934 17.376C45 17.888 44.136 18.144 43.1014 18.144C42.2587 18.144 41.5014 17.9573 40.8294 17.584C40.168 17.2 39.6454 16.6667 39.2614 15.984C38.888 15.2907 38.7014 14.4907 38.7014 13.584C38.7014 12.6773 38.8827 11.8827 39.2454 11.2C39.6187 10.5067 40.136 9.97333 40.7974 9.6C41.4694 9.22667 42.2374 9.04 43.1014 9.04C43.9334 9.04 44.6747 9.22133 45.3254 9.584C45.976 9.94667 46.4827 10.4587 46.8454 11.12C47.208 11.7707 47.3894 12.5227 47.3894 13.376ZM45.4854 12.8C45.4747 12.128 45.2347 11.5893 44.7654 11.184C44.296 10.7787 43.7147 10.576 43.0214 10.576C42.392 10.576 41.8534 10.7787 41.4054 11.184C40.9574 11.5787 40.6907 12.1173 40.6054 12.8H45.4854ZM90.1389 12.416C90.1389 11.328 90.3895 10.352 90.8909 9.488C91.4029 8.624 92.0909 7.952 92.9549 7.472C93.8295 6.98133 94.7842 6.736 95.8189 6.736C97.0029 6.736 98.0535 7.02933 98.9709 7.616C99.8989 8.192 100.571 9.01333 100.987 10.08H98.7949C98.5069 9.49333 98.1069 9.056 97.5949 8.768C97.0829 8.48 96.4909 8.336 95.8189 8.336C95.0829 8.336 94.4269 8.50133 93.8509 8.832C93.2749 9.16267 92.8215 9.63733 92.4909 10.256C92.1709 10.8747 92.0109 11.5947 92.0109 12.416C92.0109 13.2373 92.1709 13.9573 92.4909 14.576C92.8215 15.1947 93.2749 15.6747 93.8509 16.016C94.4269 16.3467 95.0829 16.512 95.8189 16.512C96.4909 16.512 97.0829 16.368 97.5949 16.08C98.1069 15.792 98.5069 15.3547 98.7949 14.768H100.987C100.571 15.8347 99.8989 16.656 98.9709 17.232C98.0535 17.808 97.0029 18.096 95.8189 18.096C94.7735 18.096 93.8189 17.856 92.9549 17.376C92.0909 16.8853 91.4029 16.208 90.8909 15.344C90.3895 14.48 90.1389 13.504 90.1389 12.416ZM102.514 13.552C102.514 12.6667 102.695 11.8827 103.058 11.2C103.431 10.5173 103.933 9.98933 104.562 9.616C105.202 9.232 105.906 9.04 106.674 9.04C107.367 9.04 107.97 9.17867 108.482 9.456C109.005 9.72267 109.421 10.0587 109.73 10.464V9.184H111.57V18H109.73V16.688C109.421 17.104 108.999 17.4507 108.466 17.728C107.933 18.0053 107.325 18.144 106.642 18.144C105.885 18.144 105.191 17.952 104.562 17.568C103.933 17.1733 103.431 16.6293 103.058 15.936C102.695 15.232 102.514 14.4373 102.514 13.552ZM109.73 13.584C109.73 12.976 109.602 12.448 109.346 12C109.101 11.552 108.775 11.2107 108.37 10.976C107.965 10.7413 107.527 10.624 107.058 10.624C106.589 10.624 106.151 10.7413 105.746 10.976C105.341 11.2 105.01 11.536 104.754 11.984C104.509 12.4213 104.386 12.944 104.386 13.552C104.386 14.16 104.509 14.6933 104.754 15.152C105.01 15.6107 105.341 15.9627 105.746 16.208C106.162 16.4427 106.599 16.56 107.058 16.56C107.527 16.56 107.965 16.4427 108.37 16.208C108.775 15.9733 109.101 15.632 109.346 15.184C109.602 14.7253 109.73 14.192 109.73 13.584ZM116.094 10.672V15.552C116.094 15.8827 116.168 16.1227 116.318 16.272C116.478 16.4107 116.744 16.48 117.118 16.48H118.238V18H116.798C115.976 18 115.347 17.808 114.91 17.424C114.472 17.04 114.254 16.416 114.254 15.552V10.672H113.214V9.184H114.254V6.992H116.094V9.184H118.238V10.672H116.094ZM127.999 13.376C127.999 13.7067 127.977 14.0053 127.935 14.272H121.199C121.252 14.976 121.513 15.5413 121.983 15.968C122.452 16.3947 123.028 16.608 123.711 16.608C124.692 16.608 125.385 16.1973 125.791 15.376H127.759C127.492 16.1867 127.007 16.8533 126.303 17.376C125.609 17.888 124.745 18.144 123.711 18.144C122.868 18.144 122.111 17.9573 121.439 17.584C120.777 17.2 120.255 16.6667 119.871 15.984C119.497 15.2907 119.311 14.4907 119.311 13.584C119.311 12.6773 119.492 11.8827 119.855 11.2C120.228 10.5067 120.745 9.97333 121.407 9.6C122.079 9.22667 122.847 9.04 123.711 9.04C124.543 9.04 125.284 9.22133 125.935 9.584C126.585 9.94667 127.092 10.4587 127.455 11.12C127.817 11.7707 127.999 12.5227 127.999 13.376ZM126.095 12.8C126.084 12.128 125.844 11.5893 125.375 11.184C124.905 10.7787 124.324 10.576 123.631 10.576C123.001 10.576 122.463 10.7787 122.015 11.184C121.567 11.5787 121.3 12.1173 121.215 12.8H126.095ZM133.346 9.04C134.028 9.04 134.631 9.17867 135.154 9.456C135.687 9.72267 136.103 10.0587 136.402 10.464V9.184H138.242V18.144C138.242 18.9547 138.071 19.6747 137.73 20.304C137.388 20.944 136.892 21.4453 136.242 21.808C135.602 22.1707 134.834 22.352 133.938 22.352C132.743 22.352 131.751 22.0693 130.962 21.504C130.172 20.9493 129.724 20.192 129.618 19.232H131.426C131.564 19.6907 131.858 20.0587 132.306 20.336C132.764 20.624 133.308 20.768 133.938 20.768C134.674 20.768 135.266 20.544 135.714 20.096C136.172 19.648 136.402 18.9973 136.402 18.144V16.672C136.092 17.088 135.671 17.44 135.138 17.728C134.615 18.0053 134.018 18.144 133.346 18.144C132.578 18.144 131.874 17.952 131.234 17.568C130.604 17.1733 130.103 16.6293 129.73 15.936C129.367 15.232 129.186 14.4373 129.186 13.552C129.186 12.6667 129.367 11.8827 129.73 11.2C130.103 10.5173 130.604 9.98933 131.234 9.616C131.874 9.232 132.578 9.04 133.346 9.04ZM136.402 13.584C136.402 12.976 136.274 12.448 136.018 12C135.772 11.552 135.447 11.2107 135.042 10.976C134.636 10.7413 134.199 10.624 133.73 10.624C133.26 10.624 132.823 10.7413 132.418 10.976C132.012 11.2 131.682 11.536 131.426 11.984C131.18 12.4213 131.058 12.944 131.058 13.552C131.058 14.16 131.18 14.6933 131.426 15.152C131.682 15.6107 132.012 15.9627 132.418 16.208C132.834 16.4427 133.271 16.56 133.73 16.56C134.199 16.56 134.636 16.4427 135.042 16.208C135.447 15.9733 135.772 15.632 136.018 15.184C136.274 14.7253 136.402 14.192 136.402 13.584ZM144.462 18.144C143.63 18.144 142.878 17.9573 142.206 17.584C141.534 17.2 141.006 16.6667 140.622 15.984C140.238 15.2907 140.046 14.4907 140.046 13.584C140.046 12.688 140.243 11.8933 140.638 11.2C141.032 10.5067 141.571 9.97333 142.254 9.6C142.936 9.22667 143.699 9.04 144.542 9.04C145.384 9.04 146.147 9.22667 146.83 9.6C147.512 9.97333 148.051 10.5067 148.446 11.2C148.84 11.8933 149.038 12.688 149.038 13.584C149.038 14.48 148.835 15.2747 148.43 15.968C148.024 16.6613 147.47 17.2 146.766 17.584C146.072 17.9573 145.304 18.144 144.462 18.144ZM144.462 16.56C144.931 16.56 145.368 16.448 145.774 16.224C146.19 16 146.526 15.664 146.782 15.216C147.038 14.768 147.166 14.224 147.166 13.584C147.166 12.944 147.043 12.4053 146.798 11.968C146.552 11.52 146.227 11.184 145.822 10.96C145.416 10.736 144.979 10.624 144.51 10.624C144.04 10.624 143.603 10.736 143.198 10.96C142.803 11.184 142.488 11.52 142.254 11.968C142.019 12.4053 141.902 12.944 141.902 13.584C141.902 14.5333 142.142 15.2693 142.622 15.792C143.112 16.304 143.726 16.56 144.462 16.56ZM152.665 10.464C152.931 10.016 153.283 9.66933 153.721 9.424C154.169 9.168 154.697 9.04 155.305 9.04V10.928H154.841C154.126 10.928 153.582 11.1093 153.209 11.472C152.846 11.8347 152.665 12.464 152.665 13.36V18H150.841V9.184H152.665V10.464ZM157.909 8.016C157.579 8.016 157.301 7.904 157.077 7.68C156.853 7.456 156.741 7.17867 156.741 6.848C156.741 6.51733 156.853 6.24 157.077 6.016C157.301 5.792 157.579 5.68 157.909 5.68C158.229 5.68 158.501 5.792 158.725 6.016C158.949 6.24 159.061 6.51733 159.061 6.848C159.061 7.17867 158.949 7.456 158.725 7.68C158.501 7.904 158.229 8.016 157.909 8.016ZM158.805 9.184V18H156.981V9.184H158.805ZM169.28 13.376C169.28 13.7067 169.259 14.0053 169.216 14.272H162.48C162.533 14.976 162.795 15.5413 163.264 15.968C163.733 16.3947 164.309 16.608 164.992 16.608C165.973 16.608 166.667 16.1973 167.072 15.376H169.04C168.773 16.1867 168.288 16.8533 167.584 17.376C166.891 17.888 166.027 18.144 164.992 18.144C164.149 18.144 163.392 17.9573 162.72 17.584C162.059 17.2 161.536 16.6667 161.152 15.984C160.779 15.2907 160.592 14.4907 160.592 13.584C160.592 12.6773 160.773 11.8827 161.136 11.2C161.509 10.5067 162.027 9.97333 162.688 9.6C163.36 9.22667 164.128 9.04 164.992 9.04C165.824 9.04 166.565 9.22133 167.216 9.584C167.867 9.94667 168.373 10.4587 168.736 11.12C169.099 11.7707 169.28 12.5227 169.28 13.376ZM167.376 12.8C167.365 12.128 167.125 11.5893 166.656 11.184C166.187 10.7787 165.605 10.576 164.912 10.576C164.283 10.576 163.744 10.7787 163.296 11.184C162.848 11.5787 162.581 12.1173 162.496 12.8H167.376ZM174.275 18.144C173.582 18.144 172.958 18.0213 172.403 17.776C171.859 17.52 171.427 17.1787 171.107 16.752C170.787 16.3147 170.616 15.8293 170.595 15.296H172.483C172.515 15.6693 172.691 15.984 173.011 16.24C173.342 16.4853 173.752 16.608 174.243 16.608C174.755 16.608 175.15 16.512 175.427 16.32C175.715 16.1173 175.859 15.8613 175.859 15.552C175.859 15.2213 175.699 14.976 175.379 14.816C175.07 14.656 174.574 14.48 173.891 14.288C173.23 14.1067 172.691 13.9307 172.275 13.76C171.859 13.5893 171.496 13.328 171.187 12.976C170.888 12.624 170.739 12.16 170.739 11.584C170.739 11.1147 170.878 10.688 171.155 10.304C171.432 9.90933 171.827 9.6 172.339 9.376C172.862 9.152 173.459 9.04 174.131 9.04C175.134 9.04 175.939 9.296 176.547 9.808C177.166 10.3093 177.496 10.9973 177.539 11.872H175.715C175.683 11.4773 175.523 11.1627 175.235 10.928C174.947 10.6933 174.558 10.576 174.067 10.576C173.587 10.576 173.219 10.6667 172.963 10.848C172.707 11.0293 172.579 11.2693 172.579 11.568C172.579 11.8027 172.664 12 172.835 12.16C173.006 12.32 173.214 12.448 173.459 12.544C173.704 12.6293 174.067 12.7413 174.547 12.88C175.187 13.0507 175.71 13.2267 176.115 13.408C176.531 13.5787 176.888 13.8347 177.187 14.176C177.486 14.5173 177.64 14.9707 177.651 15.536C177.651 16.0373 177.512 16.4853 177.235 16.88C176.958 17.2747 176.563 17.584 176.051 17.808C175.55 18.032 174.958 18.144 174.275 18.144ZM249.521 6.88V18H247.697V10.384L244.305 18H243.041L239.633 10.384V18H237.809V6.88H239.777L243.681 15.6L247.569 6.88H249.521ZM259.855 9.184L254.447 22.144H252.559L254.351 17.856L250.879 9.184H252.911L255.391 15.904L257.967 9.184H259.855ZM264.78 12.416C264.78 11.328 265.03 10.352 265.532 9.488C266.044 8.624 266.732 7.952 267.596 7.472C268.47 6.98133 269.425 6.736 270.46 6.736C271.644 6.736 272.694 7.02933 273.612 7.616C274.54 8.192 275.212 9.01333 275.628 10.08H273.436C273.148 9.49333 272.748 9.056 272.236 8.768C271.724 8.48 271.132 8.336 270.46 8.336C269.724 8.336 269.068 8.50133 268.492 8.832C267.916 9.16267 267.462 9.63733 267.132 10.256C266.812 10.8747 266.652 11.5947 266.652 12.416C266.652 13.2373 266.812 13.9573 267.132 14.576C267.462 15.1947 267.916 15.6747 268.492 16.016C269.068 16.3467 269.724 16.512 270.46 16.512C271.132 16.512 271.724 16.368 272.236 16.08C272.748 15.792 273.148 15.3547 273.436 14.768H275.628C275.212 15.8347 274.54 16.656 273.612 17.232C272.694 17.808 271.644 18.096 270.46 18.096C269.414 18.096 268.46 17.856 267.596 17.376C266.732 16.8853 266.044 16.208 265.532 15.344C265.03 14.48 264.78 13.504 264.78 12.416ZM281.587 18.144C280.755 18.144 280.003 17.9573 279.331 17.584C278.659 17.2 278.131 16.6667 277.747 15.984C277.363 15.2907 277.171 14.4907 277.171 13.584C277.171 12.688 277.368 11.8933 277.763 11.2C278.157 10.5067 278.696 9.97333 279.379 9.6C280.061 9.22667 280.824 9.04 281.667 9.04C282.509 9.04 283.272 9.22667 283.955 9.6C284.637 9.97333 285.176 10.5067 285.571 11.2C285.965 11.8933 286.163 12.688 286.163 13.584C286.163 14.48 285.96 15.2747 285.555 15.968C285.149 16.6613 284.595 17.2 283.891 17.584C283.197 17.9573 282.429 18.144 281.587 18.144ZM281.587 16.56C282.056 16.56 282.493 16.448 282.899 16.224C283.315 16 283.651 15.664 283.907 15.216C284.163 14.768 284.291 14.224 284.291 13.584C284.291 12.944 284.168 12.4053 283.923 11.968C283.677 11.52 283.352 11.184 282.947 10.96C282.541 10.736 282.104 10.624 281.635 10.624C281.165 10.624 280.728 10.736 280.323 10.96C279.928 11.184 279.613 11.52 279.379 11.968C279.144 12.4053 279.027 12.944 279.027 13.584C279.027 14.5333 279.267 15.2693 279.747 15.792C280.237 16.304 280.851 16.56 281.587 16.56ZM289.79 6.16V18H287.966V6.16H289.79ZM294.008 6.16V18H292.184V6.16H294.008ZM304.483 13.376C304.483 13.7067 304.462 14.0053 304.419 14.272H297.683C297.736 14.976 297.998 15.5413 298.467 15.968C298.936 16.3947 299.512 16.608 300.195 16.608C301.176 16.608 301.87 16.1973 302.275 15.376H304.243C303.976 16.1867 303.491 16.8533 302.787 17.376C302.094 17.888 301.23 18.144 300.195 18.144C299.352 18.144 298.595 17.9573 297.923 17.584C297.262 17.2 296.739 16.6667 296.355 15.984C295.982 15.2907 295.795 14.4907 295.795 13.584C295.795 12.6773 295.976 11.8827 296.339 11.2C296.712 10.5067 297.23 9.97333 297.891 9.6C298.563 9.22667 299.331 9.04 300.195 9.04C301.027 9.04 301.768 9.22133 302.419 9.584C303.07 9.94667 303.576 10.4587 303.939 11.12C304.302 11.7707 304.483 12.5227 304.483 13.376ZM302.579 12.8C302.568 12.128 302.328 11.5893 301.859 11.184C301.39 10.7787 300.808 10.576 300.115 10.576C299.486 10.576 298.947 10.7787 298.499 11.184C298.051 11.5787 297.784 12.1173 297.699 12.8H302.579ZM305.67 13.584C305.67 12.6773 305.851 11.8827 306.214 11.2C306.587 10.5067 307.099 9.97333 307.75 9.6C308.401 9.22667 309.147 9.04 309.99 9.04C311.057 9.04 311.937 9.296 312.63 9.808C313.334 10.3093 313.809 11.0293 314.054 11.968H312.086C311.926 11.5307 311.67 11.1893 311.318 10.944C310.966 10.6987 310.523 10.576 309.99 10.576C309.243 10.576 308.646 10.8427 308.198 11.376C307.761 11.8987 307.542 12.6347 307.542 13.584C307.542 14.5333 307.761 15.2747 308.198 15.808C308.646 16.3413 309.243 16.608 309.99 16.608C311.046 16.608 311.745 16.144 312.086 15.216H314.054C313.798 16.112 313.318 16.8267 312.614 17.36C311.91 17.8827 311.035 18.144 309.99 18.144C309.147 18.144 308.401 17.9573 307.75 17.584C307.099 17.2 306.587 16.6667 306.214 15.984C305.851 15.2907 305.67 14.4907 305.67 13.584ZM318 10.672V15.552C318 15.8827 318.075 16.1227 318.224 16.272C318.384 16.4107 318.651 16.48 319.024 16.48H320.144V18H318.704C317.883 18 317.253 17.808 316.816 17.424C316.379 17.04 316.16 16.416 316.16 15.552V10.672H315.12V9.184H316.16V6.992H318V9.184H320.144V10.672H318ZM322.753 8.016C322.422 8.016 322.145 7.904 321.921 7.68C321.697 7.456 321.585 7.17867 321.585 6.848C321.585 6.51733 321.697 6.24 321.921 6.016C322.145 5.792 322.422 5.68 322.753 5.68C323.073 5.68 323.345 5.792 323.569 6.016C323.793 6.24 323.905 6.51733 323.905 6.848C323.905 7.17867 323.793 7.456 323.569 7.68C323.345 7.904 323.073 8.016 322.753 8.016ZM323.649 9.184V18H321.825V9.184H323.649ZM329.868 18.144C329.036 18.144 328.284 17.9573 327.612 17.584C326.94 17.2 326.412 16.6667 326.028 15.984C325.644 15.2907 325.452 14.4907 325.452 13.584C325.452 12.688 325.649 11.8933 326.044 11.2C326.438 10.5067 326.977 9.97333 327.66 9.6C328.342 9.22667 329.105 9.04 329.948 9.04C330.79 9.04 331.553 9.22667 332.236 9.6C332.918 9.97333 333.457 10.5067 333.852 11.2C334.246 11.8933 334.444 12.688 334.444 13.584C334.444 14.48 334.241 15.2747 333.836 15.968C333.43 16.6613 332.876 17.2 332.172 17.584C331.478 17.9573 330.71 18.144 329.868 18.144ZM329.868 16.56C330.337 16.56 330.774 16.448 331.18 16.224C331.596 16 331.932 15.664 332.188 15.216C332.444 14.768 332.572 14.224 332.572 13.584C332.572 12.944 332.449 12.4053 332.204 11.968C331.958 11.52 331.633 11.184 331.228 10.96C330.822 10.736 330.385 10.624 329.916 10.624C329.446 10.624 329.009 10.736 328.604 10.96C328.209 11.184 327.894 11.52 327.66 11.968C327.425 12.4053 327.308 12.944 327.308 13.584C327.308 14.5333 327.548 15.2693 328.028 15.792C328.518 16.304 329.132 16.56 329.868 16.56ZM340.695 9.04C341.388 9.04 342.007 9.184 342.551 9.472C343.106 9.76 343.538 10.1867 343.847 10.752C344.156 11.3173 344.311 12 344.311 12.8V18H342.503V13.072C342.503 12.2827 342.306 11.68 341.911 11.264C341.516 10.8373 340.978 10.624 340.295 10.624C339.612 10.624 339.068 10.8373 338.663 11.264C338.268 11.68 338.071 12.2827 338.071 13.072V18H336.247V9.184H338.071V10.192C338.37 9.82933 338.748 9.54667 339.207 9.344C339.676 9.14133 340.172 9.04 340.695 9.04ZM349.838 18.144C349.144 18.144 348.52 18.0213 347.966 17.776C347.422 17.52 346.99 17.1787 346.67 16.752C346.35 16.3147 346.179 15.8293 346.158 15.296H348.046C348.078 15.6693 348.254 15.984 348.574 16.24C348.904 16.4853 349.315 16.608 349.806 16.608C350.318 16.608 350.712 16.512 350.99 16.32C351.278 16.1173 351.422 15.8613 351.422 15.552C351.422 15.2213 351.262 14.976 350.942 14.816C350.632 14.656 350.136 14.48 349.454 14.288C348.792 14.1067 348.254 13.9307 347.838 13.76C347.422 13.5893 347.059 13.328 346.75 12.976C346.451 12.624 346.302 12.16 346.302 11.584C346.302 11.1147 346.44 10.688 346.718 10.304C346.995 9.90933 347.39 9.6 347.902 9.376C348.424 9.152 349.022 9.04 349.694 9.04C350.696 9.04 351.502 9.296 352.11 9.808C352.728 10.3093 353.059 10.9973 353.102 11.872H351.278C351.246 11.4773 351.086 11.1627 350.798 10.928C350.51 10.6933 350.12 10.576 349.63 10.576C349.15 10.576 348.782 10.6667 348.526 10.848C348.27 11.0293 348.142 11.2693 348.142 11.568C348.142 11.8027 348.227 12 348.398 12.16C348.568 12.32 348.776 12.448 349.022 12.544C349.267 12.6293 349.63 12.7413 350.11 12.88C350.75 13.0507 351.272 13.2267 351.678 13.408C352.094 13.5787 352.451 13.8347 352.75 14.176C353.048 14.5173 353.203 14.9707 353.214 15.536C353.214 16.0373 353.075 16.4853 352.798 16.88C352.52 17.2747 352.126 17.584 351.614 17.808C351.112 18.032 350.52 18.144 349.838 18.144ZM402.699 12.288C403.296 12.3947 403.803 12.7093 404.219 13.232C404.635 13.7547 404.843 14.3467 404.843 15.008C404.843 15.5733 404.694 16.0853 404.395 16.544C404.107 16.992 403.686 17.3493 403.131 17.616C402.576 17.872 401.931 18 401.195 18H396.747V6.88H400.987C401.744 6.88 402.395 7.008 402.939 7.264C403.483 7.52 403.894 7.86667 404.171 8.304C404.448 8.73067 404.587 9.21067 404.587 9.744C404.587 10.384 404.416 10.9173 404.075 11.344C403.734 11.7707 403.275 12.0853 402.699 12.288ZM398.571 11.552H400.827C401.424 11.552 401.888 11.4187 402.219 11.152C402.56 10.8747 402.731 10.48 402.731 9.968C402.731 9.46667 402.56 9.07733 402.219 8.8C401.888 8.512 401.424 8.368 400.827 8.368H398.571V11.552ZM401.035 16.512C401.654 16.512 402.139 16.3627 402.491 16.064C402.843 15.7653 403.019 15.3493 403.019 14.816C403.019 14.272 402.832 13.84 402.459 13.52C402.086 13.2 401.59 13.04 400.971 13.04H398.571V16.512H401.035ZM408.649 6.16V18H406.825V6.16H408.649ZM414.868 18.144C414.036 18.144 413.284 17.9573 412.612 17.584C411.94 17.2 411.412 16.6667 411.028 15.984C410.644 15.2907 410.452 14.4907 410.452 13.584C410.452 12.688 410.649 11.8933 411.044 11.2C411.438 10.5067 411.977 9.97333 412.66 9.6C413.342 9.22667 414.105 9.04 414.948 9.04C415.79 9.04 416.553 9.22667 417.236 9.6C417.918 9.97333 418.457 10.5067 418.852 11.2C419.246 11.8933 419.444 12.688 419.444 13.584C419.444 14.48 419.241 15.2747 418.836 15.968C418.43 16.6613 417.876 17.2 417.172 17.584C416.478 17.9573 415.71 18.144 414.868 18.144ZM414.868 16.56C415.337 16.56 415.774 16.448 416.18 16.224C416.596 16 416.932 15.664 417.188 15.216C417.444 14.768 417.572 14.224 417.572 13.584C417.572 12.944 417.449 12.4053 417.204 11.968C416.958 11.52 416.633 11.184 416.228 10.96C415.822 10.736 415.385 10.624 414.916 10.624C414.446 10.624 414.009 10.736 413.604 10.96C413.209 11.184 412.894 11.52 412.66 11.968C412.425 12.4053 412.308 12.944 412.308 13.584C412.308 14.5333 412.548 15.2693 413.028 15.792C413.518 16.304 414.132 16.56 414.868 16.56ZM424.799 9.04C425.482 9.04 426.084 9.17867 426.607 9.456C427.14 9.72267 427.556 10.0587 427.855 10.464V9.184H429.695V18.144C429.695 18.9547 429.524 19.6747 429.183 20.304C428.842 20.944 428.346 21.4453 427.695 21.808C427.055 22.1707 426.287 22.352 425.391 22.352C424.196 22.352 423.204 22.0693 422.415 21.504C421.626 20.9493 421.178 20.192 421.071 19.232H422.879C423.018 19.6907 423.311 20.0587 423.759 20.336C424.218 20.624 424.762 20.768 425.391 20.768C426.127 20.768 426.719 20.544 427.167 20.096C427.626 19.648 427.855 18.9973 427.855 18.144V16.672C427.546 17.088 427.124 17.44 426.591 17.728C426.068 18.0053 425.471 18.144 424.799 18.144C424.031 18.144 423.327 17.952 422.687 17.568C422.058 17.1733 421.556 16.6293 421.183 15.936C420.82 15.232 420.639 14.4373 420.639 13.552C420.639 12.6667 420.82 11.8827 421.183 11.2C421.556 10.5173 422.058 9.98933 422.687 9.616C423.327 9.232 424.031 9.04 424.799 9.04ZM427.855 13.584C427.855 12.976 427.727 12.448 427.471 12C427.226 11.552 426.9 11.2107 426.495 10.976C426.09 10.7413 425.652 10.624 425.183 10.624C424.714 10.624 424.276 10.7413 423.871 10.976C423.466 11.2 423.135 11.536 422.879 11.984C422.634 12.4213 422.511 12.944 422.511 13.552C422.511 14.16 422.634 14.6933 422.879 15.152C423.135 15.6107 423.466 15.9627 423.871 16.208C424.287 16.4427 424.724 16.56 425.183 16.56C425.652 16.56 426.09 16.4427 426.495 16.208C426.9 15.9733 427.226 15.632 427.471 15.184C427.727 14.7253 427.855 14.192 427.855 13.584Z" fill="white" fill-opacity="0.55"/>
<path d="M186.5 11.75L191 16.25L195.5 11.75" stroke="white" stroke-opacity="0.55" stroke-width="1.5" stroke-linecap="round" stroke-linejoin="round"/>
</svg>
